<svg xmlns="http://www.w3.org/2000/svg" data-name="Layer 1" viewBox="0 0 64 64" id="document"><polygon fill="#fff" points="53 17 53 59 11 59 11 5 41 5 41 17 53 17"></polygon><polygon fill="#cfd8dc" points="53 17 41 17 41 5 53 17"></polygon><rect width="42" height="3" x="11" y="56" fill="#cfd8dc"></rect><path fill="#cfd8dc" d="M53,17v2H40a1,1,0,0,1-1-1V5h2V17Z"></path><path fill="#01579b" d="M53.92,16.61a1,1,0,0,0-.22-.32l-12-12A1,1,0,0,0,41,4H11a1,1,0,0,0-1,1V59a1,1,0,0,0,1,1H53a1,1,0,0,0,1-1V17A1,1,0,0,0,53.92,16.61ZM42,7.41,50.59,16H42ZM12,58V6H40V17a1,1,0,0,0,1,1H52V58Z"></path><path fill="#78909c" d="M43 22H21a1 1 0 0 1 0-2H43a1 1 0 0 1 0 2zM43 28H21a1 1 0 0 1 0-2H43a1 1 0 0 1 0 2zM43 34H21a1 1 0 0 1 0-2H43a1 1 0 0 1 0 2zM43 40H21a1 1 0 0 1 0-2H43a1 1 0 0 1 0 2zM43 46H21a1 1 0 0 1 0-2H43a1 1 0 0 1 0 2z"></path></svg>