<svg width="31" height="26" viewBox="0 0 31 26" fill="none" xmlns="http://www.w3.org/2000/svg">
<g clip-path="url(#clip0_573_3326)">
<path d="M22.2 4.16297C21.6378 3.6929 20.9791 3.35236 20.2705 3.16554C19.5619 2.97871 18.8209 2.95018 18.1 3.08197L14.278 3.77597C13.3956 3.93802 12.5933 4.392 12 5.06497C11.4052 4.39084 10.6006 3.93675 9.716 3.77597L5.9 3.08197C5.17916 2.95007 4.43813 2.97822 3.72938 3.16445C3.02062 3.35067 2.36147 3.69042 1.79857 4.15963C1.23567 4.62884 0.782786 5.21604 0.471982 5.87968C0.161178 6.54332 4.88125e-05 7.26716 0 7.99997L0 18.793C5.74559e-05 19.9638 0.410977 21.0974 1.16113 21.9963C1.91129 22.8952 2.95311 23.5024 4.105 23.712L10.391 24.855C11.455 25.0483 12.545 25.0483 13.609 24.855L19.9 23.712C21.051 23.5014 22.0916 22.8938 22.8408 21.9949C23.5899 21.0961 24.0002 19.9631 24 18.793V7.99997C24.0005 7.26742 23.8394 6.54377 23.5283 5.88057C23.2171 5.21736 22.7636 4.63091 22.2 4.16297V4.16297ZM11 22.928C10.916 22.916 10.832 22.902 10.748 22.887L4.463 21.745C3.77176 21.6192 3.14659 21.2548 2.69649 20.7154C2.24638 20.1759 1.99989 19.4956 2 18.793V7.99997C2 7.20432 2.31607 6.44126 2.87868 5.87865C3.44129 5.31604 4.20435 4.99997 5 4.99997C5.18109 5.0004 5.36179 5.0168 5.54 5.04897L9.36 5.74897C9.81961 5.83308 10.2353 6.07544 10.5348 6.43402C10.8344 6.79259 10.999 7.24473 11 7.71197V22.928ZM22 18.793C22.0001 19.4956 21.7536 20.1759 21.3035 20.7154C20.8534 21.2548 20.2282 21.6192 19.537 21.745L13.252 22.887C13.168 22.902 13.084 22.916 13 22.928V7.71197C12.9999 7.24358 13.1643 6.79003 13.4643 6.43038C13.7644 6.07073 14.1812 5.82781 14.642 5.74397L18.463 5.04397C18.8957 4.96524 19.3405 4.98262 19.7657 5.09488C20.191 5.20714 20.5863 5.41153 20.9238 5.69358C21.2613 5.97562 21.5326 6.32843 21.7186 6.727C21.9046 7.12556 22.0007 7.56015 22 7.99997V18.793Z" fill="black"/>
</g>
<path d="M28.5642 5.29596L25.6167 2.39934L26.9113 1.1047C26.9114 1.10463 26.9115 1.10456 26.9115 1.10449C26.9116 1.10447 26.9116 1.10445 26.9116 1.10443C27.2994 0.717385 27.8249 0.5 28.3728 0.5C28.9207 0.5 29.4463 0.717414 29.8341 1.10451C30.2209 1.49226 30.4381 2.01758 30.4381 2.56527C30.4381 3.113 30.2208 3.63836 29.834 4.02612L28.5642 5.29596ZM28.5642 5.29596L29.8337 4.02646L28.5642 5.29596ZM15.3913 12.6248L24.9096 3.10648L27.857 6.00309L18.313 15.5472L18.312 15.5481C18.0306 15.8311 17.6958 16.0554 17.3271 16.2081C16.9584 16.3608 16.563 16.4388 16.164 16.4377H16.1626H14.7083C14.6531 16.4377 14.6001 16.4158 14.561 16.3767C14.522 16.3376 14.5 16.2846 14.5 16.2294L14.5 14.7752L14.5 14.7739C14.499 14.3748 14.5772 13.9794 14.73 13.6107C14.8828 13.242 15.1072 12.9072 15.3903 12.6258L15.3913 12.6248Z" fill="white" stroke="black"/>
<defs>
<clipPath id="clip0_573_3326">
<rect width="24" height="24" fill="white" transform="translate(0 2)"/>
</clipPath>
</defs>
</svg>
