<?xml version="1.0" encoding="UTF-8"?>
<svg id="Capa_1" data-name="Capa 1" xmlns="http://www.w3.org/2000/svg" viewBox="0 0 600 600">
  <defs>
    <style>
      .cls-1 {
        fill: #fff;
      }
    </style>
  </defs>
  <path class="cls-1" d="m358.27,497.15c-40.02,1.38-78.83-4.97-116.72-17.71-10.89-3.66-22.22-3.07-33.46-1.32-5.6.87-7.59,3.44-3.99,8.69,1.64,2.38,2.99,4.97,4.39,7.51,4.52,8.17,3.19,14.54-4.66,19.22-23.14,13.81-46.36,27.48-69.65,41.03-8.5,4.95-14.39,3.22-19.54-5.5-26.54-44.9-53.04-89.82-79.44-134.81-6.45-10.98-4.69-16.24,7.15-21.87,23.52-11.19,47.14-22.16,70.67-33.3,7.27-3.44,13.96-2.94,18.08,4.25,3.35,5.85,6.32,3.92,10.31,1.49,17.31-10.54,34.28-21.67,52.8-30.11,37.15-16.92,74.67-17.57,111.38.05,30.54,14.66,62.04,22.81,95.94,23.39,15.32.26,27.23,8.86,32.17,23.73,2.74,8.25,6.1,6.36,11.4,3.82,20.36-9.76,40.77-19.4,61.24-28.93,10.08-4.7,20.56-7.44,31.91-6.1,13.82,1.63,22.77,9.53,27.92,21.78,4.69,11.17,2.02,21.36-5.68,30.6-10.56,12.65-24.08,21.74-37.23,31.2-33.47,24.11-68.21,46.03-108.09,58.22-18.55,5.67-37.84,4.4-56.89,4.66Zm-4.57-87.94c0-.12,0-.24,0-.37,14.22,0,28.45.17,42.67-.06,10.37-.17,15.84-5.13,15.62-13.41-.21-7.9-6.39-12.97-16.37-13.06-33.81-.29-65.74-8-95.92-23.36-22.34-11.37-46.04-15.11-70.73-9.96-29.36,6.12-53.17,23.51-77.87,39.05-4.78,3.01-1.63,5.82.02,8.63,10.72,18.24,21.67,36.36,32.12,54.75,2.95,5.19,5.61,6.54,11.68,4.8,16.61-4.76,33.8-6.53,50.46-1.03,40.83,13.49,82.61,19.27,125.49,17.58,11.53-.45,23.27-.12,34.44-3.19,33.72-9.26,63.08-27.33,91.67-46.71,15.11-10.24,30.28-20.51,43.17-33.63,2.48-2.52,4.81-5.42,2.67-9.22-1.81-3.21-4.57-4.81-8.53-4.98-6.93-.3-13.08,1.87-19.16,4.74-23.81,11.25-47.7,22.32-71.42,33.76-6.74,3.25-14.16,5.34-19.86,10.55-7.68,7.03-17.07,9.82-27.11,9.9-28.45.21-56.9.09-85.34-.07-9.8-.05-15.51-5.05-15.3-12.75.21-7.68,5.17-11.82,14.94-11.92,14.22-.15,28.45-.04,42.67-.04Z"/>
  <path class="cls-1" d="m400.67,42.7c-75.52-.56-135.34,61.44-134.37,133.53-1.33,69.21,55.81,133.48,133.27,133.97,73.11.46,132.88-59.67,133.63-132.92.74-72.35-57.68-134.02-132.54-134.58Zm17.83,194.65c-6.15,1.7-10.44,2.97-9.47,10.92.78,6.41-4.15,9.59-9.94,9.45-5.6-.14-9.41-3.95-8.8-9.74.78-7.3-2.26-10.34-9.06-11.65-6.7-1.3-12.11-5.47-17.06-9.98-4.5-4.1-5.29-9.1-1.29-13.88,3.73-4.45,9.22-4.91,13.21-1.35,10.78,9.62,23.28,9.05,36.09,7.41,8.07-1.03,14.41-8.46,14.31-16.14-.11-7.69-6.59-14.79-14.79-15.44-8.66-.68-17.44-.14-26.03-1.21-18.09-2.27-31.04-15.76-32.02-32.38-1.07-18.16,8.96-32.67,26.9-37.59,6.45-1.77,10.83-3.32,9.92-11.49-.62-5.57,3.87-8.22,9.13-8.14,5.56.09,10.29,2.82,9.47,8.83-1.1,8.03,3.24,9.48,9.4,10.89,7.76,1.78,14.58,5.59,19.39,12.29,3.43,4.78,2.92,9.4-1.33,13.13-4.25,3.72-8.82,3.53-13.23-.36-12.4-10.93-26.68-9.64-40.72-4.9-7.08,2.39-10.73,8.94-9.39,16.79,1.38,8.06,7.63,13.13,15.78,13.5,3.77.17,7.55.03,13.46.03,11.51-1.2,24.06,1.41,33.75,11.76,18.86,20.14,9.49,51.75-17.66,59.26Z"/>
</svg>