<?xml version="1.0" encoding="UTF-8"?>
<svg id="Capa_1" data-name="Capa 1" xmlns="http://www.w3.org/2000/svg" viewBox="0 0 600 600">
  <defs>
    <style>
      .cls-1 {
        fill: #fff;
      }
    </style>
  </defs>
  <path class="cls-1" d="m300,41.72c-142.64,0-258.27,115.63-258.27,258.27s115.63,258.28,258.27,258.28,258.28-115.63,258.28-258.28S442.64,41.72,300,41.72Zm.13,439.81c-20.83-.23-38.12-17.48-38.37-38.29-.25-20.52,17.44-37.86,38.56-37.8,20.82.06,37.51,16.98,37.46,37.97-.05,20.74-17.43,38.34-37.65,38.11Zm44.98-299.95c-1.37,24.54-3.43,49.04-5.31,73.55-2.08,27.06-4.29,54.11-6.39,81.16-.54,6.95-.87,13.92-1.27,20.88-.42,7.37-1.67,8.71-8.8,8.79-7.72.09-15.44.02-23.16.02,0,.06,0,.12,0,.18-8.09,0-16.18-.14-24.26.05-5.14.12-7.44-2.41-7.79-7.17-1.89-26.17-3.67-52.35-5.63-78.51-1.96-26.17-4.51-52.31-5.99-78.5-.88-15.52-4.46-31.02-1.69-46.65,3.84-21.61,23.71-37.39,46.26-36.93,22.2.45,40.67,16.89,44.46,38.46,1.48,8.42,0,16.5-.45,24.65Z"/>
</svg>