<?xml version="1.0" encoding="UTF-8"?>
<svg id="Capa_1" data-name="Capa 1" xmlns="http://www.w3.org/2000/svg" viewBox="0 0 600 600">
  <defs>
    <style>
      .cls-1 {
        fill: #fff;
      }
    </style>
  </defs>
  <path class="cls-1" d="m539.29,349.48c0,47.9,0,95.81,0,143.71,0,14.74-7.05,21.91-21.65,21.92-30.66.02-61.32,0-91.98-.02-13.84-.01-21.28-7.31-21.31-21.24-.08-34.3,0-68.6-.02-102.9-.05-62.08-.13-124.17-.19-186.25-.01-13.56,7.41-21.1,20.77-21.1,31.04,0,62.08.1,93.12,0,8.51-.03,15.38,2.42,19.49,10.42,1.45,2.82,1.75,5.75,1.74,8.87-.05,48.86-.03,97.72-.03,146.59h.04Z"/>
  <path class="cls-1" d="m367.9,399.1c0,31.41,0,62.81,0,94.22,0,14.23-7.63,21.81-21.99,21.82-30.64,0-61.28-.01-91.92-.04-14.03-.01-21.58-7.58-21.58-21.64-.01-63.2-.02-126.39,0-189.59,0-15.14,6.92-22.03,22.01-22.03,30.64,0,61.28,0,91.92,0,14.53,0,21.58,7.14,21.58,21.9,0,31.79,0,63.58,0,95.37h-.02Z"/>
  <path class="cls-1" d="m418.34,73.61c-5.9,0-12.12.02-18.34,0-11.49-.06-20.48-8.35-20.43-18.8.05-10.67,8.76-18.47,20.6-18.45,20.88.03,41.77-.03,62.65.15,4.52.04,8.93-1.24,13.64.21,9.23,2.85,14.92,9.17,14.46,18.71-1.13,23.55-.27,47.11-.59,70.66-.17,12.52-7.93,21.19-18.69,21.06-10.55-.13-18.47-9.29-18.49-21.38-.01-9.5,0-19,0-29.89-9.73,8.05-18.52,15.28-27.25,22.56-29.27,24.4-58.49,48.87-87.81,73.22-9.36,7.77-19.15,6.95-27.5-1.85-10.15-10.7-20.44-21.27-30.42-32.12-3.14-3.41-5.18-4.16-9.19-.8-42.6,35.62-85.41,70.98-128.1,106.5-11.08,9.22-24.82,7.77-30.78-3.55-4.34-8.24-2.5-17.06,5.26-23.56,24.08-20.16,48.24-40.23,72.37-60.34,23.98-19.99,47.96-39.97,71.92-59.99,11.02-9.21,19.91-8.77,30.05,1.61,10.44,10.68,20.9,21.35,31.23,32.14,2.12,2.22,3.57,2.67,6.13.52,29.49-24.74,59.07-49.36,88.63-74.03.56-.46,1.3-.9.65-2.58Z"/>
  <path class="cls-1" d="m60.99,434.84c0-20.12-.01-40.24,0-60.36.01-11.52,7.48-19.04,18.97-19.05,32.38-.03,64.76-.03,97.15,0,10.28,0,17.38,6.33,18.61,16.43.16,1.32.29,2.66.29,4,0,38.9-.02,77.79-.07,116.69-.02,15.81-6.88,22.6-22.75,22.6-29.89,0-59.78-.01-89.67-.03-15.55,0-22.53-6.9-22.53-22.21,0-19.35,0-38.7,0-58.06Z"/>
  <path class="cls-1" d="m300.06,526.85c80.86,0,161.72,0,242.58,0,13.61,0,22.02,8.37,20.97,20.76-.65,7.64-6.79,14.53-14.33,15.8-2.63.44-5.34.53-8.01.53-161.34.03-322.68.04-484.02.04-12.44,0-20.92-7.57-20.95-18.61-.03-10.79,8.74-18.49,21.17-18.49,80.86-.01,161.72,0,242.58-.02Z"/>
</svg>