<?xml version="1.0" encoding="UTF-8"?>
<svg id="Capa_1" data-name="Capa 1" xmlns="http://www.w3.org/2000/svg" viewBox="0 0 600 600">
  <defs>
    <style>
      .cls-1 {
        fill: #fff;
      }
    </style>
  </defs>
  <path class="cls-1" d="m300.06,49.75c138.05-.54,250.73,113.42,250.24,251.24-.49,136.69-113.31,250.39-252.56,249.25-135.71-1.11-249.97-113.67-248.01-254.36,1.87-134.01,112.4-246.57,250.33-246.13Zm-.17,461.91c116.91-.9,210.85-93.43,211.58-210.52.73-117.89-93.04-212.39-211.03-212.65-116.75-.26-211.39,92.47-211.91,210.66-.52,117.95,93.63,211.34,211.35,212.52Z"/>
  <path class="cls-1" d="m313.16,249.25c0,8.42.28,16.85-.11,25.25-.23,4.92,1.16,6.67,6.25,6.29,16.88-1.25,32.69,2.43,46.48,12.41,23.21,16.81,33.91,39.87,29.59,68.2-4.71,30.9-23.53,50.27-53.58,58.68-6.81,1.91-13.84,1.83-20.84,1.88-8.22.06-7.84-1.94-7.84,8.06,0,3.41.09,6.82-.02,10.22-.25,7.95-5.65,13.55-13.01,13.59-7.42.05-12.82-5.31-13.18-13.39-.22-4.8-.27-9.63,0-14.42.18-3.26-1-4.06-4.08-4.02-10.82.15-21.64.2-32.46,0-14.96-.29-24.39-12.45-20.07-25.59,2.63-7.99,10.24-13.31,19.37-13.36,10.82-.05,21.65-.08,32.46.11,3.6.06,4.83-1,4.79-4.78-.2-18.23-.21-36.47,0-54.71.05-4.02-1.61-4.67-4.98-4.49-12.71.65-25.05-.78-36.8-6.2-27.83-12.85-45.09-42.21-41.12-72.76,4.06-31.27,25.77-53.63,54.65-60.5,6.66-1.58,13.43-1.87,20.24-1.81,8.93.09,7.79,1.14,7.93-8.03.05-3.41-.09-6.82.06-10.22.37-8.24,5.52-13.63,12.91-13.65,7.69-.02,13.02,5.48,13.3,13.94.14,4.4.31,8.84-.03,13.22-.3,3.77,1.07,4.89,4.68,4.83,10.62-.18,21.24-.15,31.86-.12,8.74.03,15.46,3.5,19.29,11.69,3.55,7.59,2.01,14.47-3.23,20.57-3.99,4.64-9.36,6.7-15.46,6.71-10.62.02-21.25.16-31.86-.11-4.26-.11-5.48,1.28-5.33,5.47.31,9.01.1,18.03.1,27.05h.03Zm-26.37-.61h.08c0-6.4,0-12.79,0-19.19-.02-12.73-.02-12.83-12.9-12.59-12.67.23-22.16,6.03-27.93,17.3-5.88,11.48-4.74,22.75,2.64,33.18,8.81,12.46,21.9,14.08,35.75,13.35,3.23-.17,2.34-2.65,2.35-4.46.05-9.19.02-18.39.02-27.58Zm26.38,103.03h-.03c0,6.01,0,12.01,0,18.02q.03,13.47,13.41,13.33c20.97-.22,36.11-21.67,29.39-41.66-5.36-15.95-24.98-26.57-40.64-22.14-2.66.75-2.09,2.59-2.11,4.22-.07,9.41-.03,18.82-.03,28.23Z"/>
</svg>