<svg xmlns="http://www.w3.org/2000/svg" data-name="Layer 1" viewBox="0 0 64 64" id="mp3"><path fill="#eee" d="M55 18H42V5a1 1 0 0 0-1-1H13a1 1 0 0 0-1 1v28a1 1 0 0 0 1 1h27v16H13a1 1 0 0 0-1 1v8a1 1 0 0 0 1 1h42a1 1 0 0 0 1-1V19a1 1 0 0 0-1-1Z"></path><rect width="34" height="20" x="8" y="32" fill="#42a5f5" rx="1" ry="1"></rect><path fill="#e0e0e0" d="m55.71 18.29-14-14A1 1 0 0 0 40 5v14a1 1 0 0 0 1 1h14a1 1 0 0 0 .71-1.71Z"></path><path fill="#fff" d="M14 46v-8h2.59L18 42.9l1.54-4.9h2.51v8h-1.69v-5.12L18.77 46h-1.52l-1.6-5.12V46zm10.19 0v-8h2.66a2.8 2.8 0 0 1 1.9.58 2.42 2.42 0 0 1 .83 1.92 2.54 2.54 0 0 1-.35 1.33 2.19 2.19 0 0 1-1 .88 2.67 2.67 0 0 1-1.15.23h-1.2V46zm1.69-4.52h.94a1.14 1.14 0 0 0 .81-.28 1 1 0 0 0 .29-.76q0-.92-1.1-.92h-.94zm4.91 2.16h1.61a1.23 1.23 0 0 0 .25.71 1 1 0 0 0 .78.36.85.85 0 0 0 .67-.31 1.14 1.14 0 0 0 .26-.77 1 1 0 0 0-.88-1.07 10.61 10.61 0 0 0-1.09 0v-1.4h.53a2.07 2.07 0 0 0 .92-.13.9.9 0 0 0 .43-.83 1 1 0 0 0-.26-.7 1 1 0 0 0-1.62.6h-1.6a2.5 2.5 0 0 1 .83-1.69 2.65 2.65 0 0 1 1.75-.57 2.69 2.69 0 0 1 1.84.62 2 2 0 0 1 .7 1.54 1.83 1.83 0 0 1-.23.95 2.84 2.84 0 0 1-.79.79 2 2 0 0 1 1.2 1.88 2.32 2.32 0 0 1-.74 1.78 2.71 2.71 0 0 1-1.92.69 2.49 2.49 0 0 1-2.2-1.06 2.55 2.55 0 0 1-.44-1.39z"></path></svg>