<svg width="31" height="27" viewBox="0 0 31 27" fill="none" xmlns="http://www.w3.org/2000/svg">
<g id="Capa_1" clip-path="url(#clip0_98_255)">
<path id="Vector" d="M30.6949 16.752C30.7579 22.0361 26.37 26.5121 20.9919 26.5167C15.5813 26.5213 11.3969 22.1343 11.2335 17.1173C11.0474 11.4019 15.708 7.01998 20.9368 7.01732C26.3585 7.015 30.7335 11.4632 30.6949 16.752ZM21.7414 14.6043C22.1805 14.604 22.62 14.6162 23.0586 14.6001C23.6637 14.5783 24.1387 14.0947 24.141 13.5222C24.1434 12.9511 23.6688 12.4695 23.0623 12.4397C22.8151 12.4274 22.5657 12.4229 22.3195 12.4421C22.0909 12.4604 22.0278 12.3717 22.0411 12.1563C22.0571 11.8981 22.0514 11.6377 22.0424 11.3786C22.022 10.7885 21.6262 10.3528 21.0526 10.2771C20.5546 10.2115 20.0754 10.5781 19.9284 11.1368C19.8289 11.5143 19.8932 11.8987 19.8879 12.2794C19.8857 12.4438 19.8305 12.5135 19.6813 12.5637C18.2845 13.0341 17.5819 14.1674 17.7893 15.6034C17.9491 16.7106 18.8612 17.6125 19.9621 17.7961C20.4124 17.871 20.8594 17.8415 21.3077 17.8514C21.7626 17.8613 21.9737 18.0311 21.9814 18.4173C21.989 18.7878 21.7555 18.9946 21.3155 18.9963C20.5045 18.9997 19.694 18.9974 18.8831 19.0008C18.7607 19.0009 18.6401 18.9972 18.5168 19.0363C18.031 19.1899 17.6808 19.6651 17.7279 20.127C17.7881 20.7166 18.228 21.1133 18.8729 21.1467C19.1971 21.1637 19.6338 21.038 19.8179 21.2032C20.0318 21.3943 19.8699 21.8397 19.8882 22.1745C19.9215 22.785 20.3804 23.2555 20.9577 23.2653C21.5322 23.2751 22.0122 22.8109 22.048 22.1953C22.0635 21.9255 22.068 21.653 22.046 21.3841C22.0264 21.1432 22.113 21.0447 22.3429 20.9661C23.4346 20.593 24.1887 19.4972 24.1411 18.3374C24.0883 17.0425 23.2382 16.1006 22.1734 15.8051C21.6067 15.6481 21.0364 15.7056 20.4661 15.6865C20.1049 15.6742 19.8798 15.4617 19.8852 15.133C19.8905 14.8168 20.1088 14.6119 20.4575 14.6075C20.8854 14.6025 21.3134 14.606 21.7414 14.6052L21.7414 14.6043Z" fill="#FDD187"/>
<path id="Vector_2" d="M11.2523 0.538247C13.3689 0.536795 15.4861 0.567844 17.6018 0.519963C18.6195 0.496979 19.8357 1.17959 19.916 2.64949C19.9508 3.28462 20.0018 3.93181 19.7657 4.55273C19.6643 4.81977 19.5471 4.97446 19.2064 5.01648C18.2035 5.13974 17.237 5.43384 16.3076 5.83423C16.1375 5.90771 15.9743 5.94868 15.7902 5.94834C12.1314 5.9476 8.4721 5.93247 4.81329 5.96423C3.77097 5.9733 2.6326 5.21589 2.55382 3.92335C2.51395 3.26547 2.44951 2.596 2.67765 1.9514C2.96967 1.12662 3.78811 0.545224 4.6663 0.543693C6.86178 0.54033 9.05726 0.540217 11.2527 0.538247L11.2523 0.538247Z" fill="#F59E14"/>
<path id="Vector_3" d="M14.0492 7.03179C13.0682 7.81898 12.1943 8.67202 11.4545 9.66241C10.8726 10.4414 10.3831 11.2738 10.0239 12.1771C9.93689 12.3963 9.83214 12.4535 9.61005 12.4522C8.02336 12.4436 6.43527 12.4154 4.84954 12.4625C3.7247 12.4957 2.62615 11.6547 2.55668 10.4216C2.52054 9.77346 2.45703 9.11514 2.67127 8.4817C2.96002 7.62905 3.78077 7.04069 4.67056 7.03962C7.72058 7.03567 10.7706 7.03451 13.8206 7.03195C13.8967 7.0319 13.9732 7.03185 14.0492 7.03179Z" fill="#F59E14"/>
<path id="Vector_4" d="M5.69579 18.9439C4.68267 18.9446 3.6686 18.9151 2.65736 18.9543C1.5724 18.9964 0.471542 18.1693 0.401131 16.9158C0.365456 16.2797 0.298706 15.6311 0.50554 15.0079C0.801215 14.1177 1.61456 13.5377 2.55071 13.5361C4.77911 13.5332 7.00751 13.5372 9.23637 13.5241C9.50854 13.5225 9.53873 13.5865 9.47352 13.8354C9.05268 15.4417 8.94761 17.065 9.2645 18.7037C9.30591 18.9177 9.2234 18.9475 9.03886 18.9467C7.92465 18.9414 6.81045 18.945 5.69625 18.9457L5.69625 18.9439L5.69579 18.9439Z" fill="#F59E14"/>
<path id="Vector_5" d="M12.8306 25.4349C12.6187 25.4351 12.4861 25.4352 12.3535 25.4353C9.85612 25.437 7.35785 25.4118 4.86101 25.4525C3.7139 25.4714 2.62092 24.6271 2.56581 23.38C2.5385 22.7663 2.46759 22.1404 2.6647 21.5395C2.97332 20.5968 3.7621 20.0317 4.74647 20.0301C6.25387 20.0272 7.76172 20.0284 9.26912 20.0251C9.42027 20.025 9.55149 20.0175 9.60818 20.2078C10.2031 22.2131 11.2846 23.9224 12.831 25.4354L12.8306 25.4349Z" fill="#F59E14"/>
</g>
<defs>
<clipPath id="clip0_98_255">
<rect width="30.3333" height="26" fill="white" transform="translate(0.35083 0.531326) rotate(-0.0392975)"/>
</clipPath>
</defs>
</svg>
