<svg width="31" height="31" viewBox="0 0 31 31" fill="none" xmlns="http://www.w3.org/2000/svg">
<g id="Capa_1" clip-path="url(#clip0_98_108)">
<path id="Vector" d="M17.4147 27.6765C16.5138 27.6897 15.7788 27.3454 15.013 27.1422C13.9357 26.8566 12.8708 26.5234 11.7935 26.2387C11.1087 26.058 10.4358 26.1495 9.79806 26.4679C9.53763 26.5975 9.27219 26.7171 9.01594 26.8542C8.86988 26.9327 8.80556 26.901 8.74284 26.75C8.22596 25.494 7.7024 24.2405 7.17884 22.987C6.91121 22.346 6.6369 21.7068 6.37177 21.0642C6.33497 20.9749 6.22384 20.8698 6.40748 20.7862C7.88076 20.114 9.29383 19.3116 10.8156 18.7462C11.9025 18.3431 12.953 18.501 13.9645 19.0212C14.307 19.1971 14.6428 19.3856 14.9519 19.6158C15.3754 19.9319 15.8956 19.9682 16.3783 20.1065C17.3697 20.3913 18.3726 20.6385 19.3656 20.9175C20.1256 21.1307 20.5402 21.7323 20.4873 22.4995C20.4401 23.1724 19.8669 23.7455 19.1405 23.8445C18.9184 23.8747 18.7071 23.818 18.4967 23.7614C16.7822 23.3043 15.0685 22.8447 13.3548 22.3875C13.1285 22.3276 12.8996 22.2827 12.7336 22.5174C12.5518 22.7754 12.6823 23.0825 13.0313 23.1775C14.2874 23.5189 15.5434 23.8578 16.8028 24.1867C17.4617 24.3582 18.104 24.6007 18.7854 24.6762C20.0388 24.8139 21.2948 23.8989 21.353 22.3612C21.3604 22.1683 21.4314 22.1232 21.5875 22.078C23.5009 21.5241 25.4101 20.9551 27.3268 20.4103C28.0665 20.2003 28.8229 20.0854 29.5929 20.2836C30.4338 20.5 30.6814 21.1518 30.52 21.8882C30.3493 22.6656 29.8713 23.221 29.1125 23.5137C25.9788 24.7213 22.8476 25.9364 19.7106 27.1348C18.9468 27.4267 18.1646 27.6727 17.4147 27.6757L17.4147 27.6765Z" fill="#0193B4"/>
<path id="Vector_2" d="M19.6382 16.7977C18.4125 16.7719 17.1958 16.6767 16.0583 16.1666C15.0326 15.7065 14.7341 15.1457 14.9663 14.052C15.3958 12.0273 16.5998 10.7133 18.6309 10.2177C21.1363 9.60746 23.7777 11.3253 24.2629 13.8594C24.3291 14.2058 24.407 14.5572 24.3688 14.907C24.3231 15.3211 24.0812 15.631 23.7382 15.865C23.0346 16.3446 22.2307 16.5397 21.4091 16.663C20.8247 16.7502 20.2344 16.8174 19.6399 16.7969L19.6382 16.7977Z" fill="#92D3ED"/>
<path id="Vector_3" d="M8.68839 28.9906C8.67952 29.4564 8.4835 29.7454 8.11789 29.9034C7.41337 30.207 6.70635 30.503 5.9943 30.7873C5.44504 31.0064 4.94307 30.7972 4.71391 30.2539C4.03397 28.6407 3.36404 27.0225 2.69077 25.4068C2.15717 24.1249 1.62358 22.843 1.09165 21.5611C0.850778 20.9803 1.05167 20.4918 1.63683 20.246C2.30545 19.9642 2.97742 19.6882 3.64688 19.4081C4.22035 19.1682 4.7365 19.3648 4.9757 19.9356C6.02783 22.4485 7.07495 24.9647 8.12374 27.4792C8.28348 27.8614 8.44823 28.242 8.6038 28.6267C8.65817 28.7602 8.71504 28.8979 8.68922 28.9914L8.68839 28.9906Z" fill="#0193B4"/>
<path id="Vector_4" d="M25.5433 8.47997C27.8921 8.43161 29.8797 10.2509 30.2119 12.4571C30.3847 13.6065 30.1337 14.0457 29.0761 14.5398C28.8148 14.6619 28.5385 14.7606 28.2597 14.8326C27.3414 15.0686 26.4037 15.1536 25.4577 15.1692C25.2431 15.1727 25.2055 15.0951 25.2054 14.8989C25.2039 12.7443 24.2501 11.123 22.4274 10.0023C22.2336 9.88302 22.1993 9.83463 22.3871 9.66921C23.0596 9.07437 24.2273 8.43078 25.5441 8.4808L25.5433 8.47997Z" fill="#92D3ED"/>
<path id="Vector_5" d="M13.7283 8.48725C14.9323 8.47724 15.9763 8.89309 16.8837 9.67717C17.0232 9.79812 17.1026 9.86234 16.8705 9.99524C15.3982 10.8394 14.5132 12.1181 14.1553 13.7662C14.072 14.1511 14.0489 14.5476 14.0701 14.9433C14.076 15.061 14.0903 15.1779 13.9107 15.1747C12.5263 15.1506 11.1502 15.0705 9.89478 14.4002C9.11797 13.9859 8.87715 13.4877 9.02852 12.6227C9.39448 10.5305 10.5826 9.16976 12.6513 8.60319C13.0069 8.50611 13.3642 8.48249 13.7283 8.48725Z" fill="#92D3ED"/>
<path id="Vector_6" d="M25.5494 2.86098C26.7551 2.86182 27.7227 3.82368 27.7369 5.03662C27.751 6.22786 26.7372 7.23449 25.5207 7.22781C24.4327 7.22188 23.3575 6.40201 23.3474 5.03796C23.3372 3.66139 24.4881 2.81329 25.5494 2.86098Z" fill="#92D3ED"/>
<path id="Vector_7" d="M13.7336 2.86825C14.9435 2.86992 15.9261 3.84846 15.916 5.04055C15.9052 6.26938 14.9339 7.23924 13.7165 7.23757C12.5234 7.23589 11.5449 6.25651 11.5349 5.05358C11.5232 3.8448 12.5087 2.86658 13.7336 2.86825Z" fill="#92D3ED"/>
<path id="Vector_8" d="M19.6094 8.85971C18.3995 8.85553 17.4428 7.87197 17.4461 6.63563C17.4503 5.44688 18.4408 4.48536 19.6557 4.48953C20.8814 4.4937 21.8215 5.47394 21.8173 6.74366C21.8139 7.91238 20.821 8.86389 19.6094 8.85971Z" fill="#92D3ED"/>
</g>
<defs>
<clipPath id="clip0_98_108">
<rect width="30" height="30" fill="white" transform="translate(0.977295 0.875854) rotate(-0.0392975)"/>
</clipPath>
</defs>
</svg>
