<svg width="39" height="23" viewBox="0 0 39 23" fill="none" xmlns="http://www.w3.org/2000/svg">
<g id="Capa_1" clip-path="url(#clip0_92_37)">
<path id="Vector" d="M19.9941 15.9892C20.5305 15.0402 21.0327 14.1662 21.5173 13.2834C21.624 13.0886 21.7454 13.0096 21.9847 13.0209C22.7316 13.0557 23.4821 12.975 24.2234 13.1507C26.2087 13.6212 27.5282 15.1469 27.5495 17.0586C27.5672 18.6076 27.5492 20.1572 27.5598 21.7067C27.5614 21.9464 27.4997 22.0328 27.2225 22.0325C22.4173 22.0279 17.6125 22.0321 12.8074 22.0398C12.5814 22.0399 12.4546 22.0136 12.4596 21.7585C12.4936 20.0679 12.3999 18.3762 12.497 16.6865C12.5899 15.0699 13.9301 13.5776 15.6157 13.1733C16.4536 12.9723 17.3087 13.0418 18.159 13.0302C18.3636 13.0274 18.3984 13.1807 18.4664 13.3C18.965 14.1734 19.4599 15.048 19.9937 15.9887L19.9941 15.9892Z" fill="#44A2DB"/>
<path id="Vector_2" d="M8.57364 12.1212C8.93403 11.4799 9.36328 10.8593 9.64103 10.185C9.95718 9.41685 10.4532 9.21737 11.3244 9.22866C12.8736 9.24919 14.1695 9.64835 15.1522 10.7883C15.3997 11.0759 15.5927 11.3943 15.7429 11.7361C15.8152 11.9004 15.8006 11.9902 15.5855 12.0402C15.3154 12.1025 15.0478 12.2912 14.7952 12.2685C14.5018 12.2423 14.521 11.8726 14.3741 11.6683C13.6789 10.7004 12.2347 10.1334 11.0337 10.3731C10.8419 10.4115 10.8126 10.5574 10.7466 10.6728C10.2065 11.6231 9.67686 12.5782 9.14054 13.5307C9.02863 13.7295 8.9818 13.9745 8.62333 13.9522C8.27578 13.9309 8.05681 13.7949 7.90232 13.5174C7.39368 12.6053 6.85515 11.7069 6.37499 10.782C6.20052 10.446 5.98634 10.3655 5.61316 10.3614C4.14562 10.3443 3.05258 10.8715 2.43102 12.1422C2.2428 12.5269 2.19466 12.9385 2.19114 13.3513C2.18242 14.4867 2.20172 15.6225 2.18493 16.7579C2.17993 17.0791 2.30009 17.1473 2.62721 17.1457C5.38042 17.1319 8.13412 17.1411 10.8873 17.126C11.2163 17.124 11.2876 17.2125 11.2793 17.5006C11.2579 18.2368 11.2731 18.2377 10.4845 18.2387C7.45073 18.2421 4.41692 18.2451 1.38311 18.2489C1.17801 18.249 0.987175 18.2888 0.991236 17.9787C1.01146 16.311 0.986099 14.643 1.02294 12.9758C1.06023 11.2844 2.52667 9.69643 4.31966 9.34846C5.1129 9.19459 5.91866 9.28392 6.71863 9.25958C6.91091 9.25372 6.93238 9.39645 6.99417 9.50568C7.44433 10.2997 7.89211 11.0956 8.34607 11.8879C8.39027 11.9654 8.40981 12.0693 8.57269 12.1212L8.57364 12.1212Z" fill="#72BFE3"/>
<path id="Vector_3" d="M31.4503 12.1954C31.9762 11.2619 32.4674 10.4112 32.934 9.54868C33.0592 9.31773 33.1987 9.21982 33.485 9.23549C34.2328 9.27595 34.9886 9.1741 35.7284 9.34982C37.5699 9.78738 39.0029 11.3201 38.9871 13.2723C38.9749 14.8223 38.9831 16.3722 38.9912 17.9222C38.9923 18.1253 38.9497 18.2152 38.7009 18.2145C35.462 18.2088 32.2235 18.211 28.9846 18.2163C28.7957 18.2164 28.723 18.1777 28.7138 17.9839C28.6724 17.1159 28.6648 17.116 29.6015 17.1153C32.2028 17.1135 34.8041 17.1113 37.4049 17.11C37.5972 17.1098 37.7962 17.1467 37.7931 16.8625C37.7809 15.6086 37.7938 14.3543 37.7697 13.1004C37.7416 11.6743 36.5377 10.3974 34.6627 10.3238C34.092 10.3013 33.7394 10.4121 33.4862 10.9454C33.0666 11.8295 32.5393 12.67 32.0537 13.5269C31.946 13.7173 31.8921 13.9512 31.5564 13.9303C31.2326 13.9098 31.0046 13.8003 30.853 13.529C30.3382 12.6063 29.7949 11.6969 29.3062 10.7628C29.1265 10.4188 28.9032 10.326 28.5139 10.3271C27.0502 10.3317 25.9567 10.8615 25.3532 12.1419C25.348 12.1524 25.3513 12.1709 25.3437 12.1753C24.964 12.3924 24.6894 12.0414 24.3523 12.0126C24.1448 11.9951 24.1907 11.8541 24.2433 11.7179C24.7746 10.3535 26.4152 9.26809 27.9795 9.25204C28.4766 9.24685 28.9747 9.25973 29.4713 9.24C29.7091 9.23059 29.8336 9.30232 29.9415 9.50006C30.4178 10.3743 30.9131 11.2393 31.4503 12.1945L31.4503 12.1954Z" fill="#72BFE3"/>
<path id="Vector_4" d="M12.7223 3.97023C12.564 5.73883 11.9113 7.30555 10.3971 8.45562C9.1567 9.398 7.72951 9.37651 6.54948 8.37632C4.95854 7.02835 4.17685 5.33088 4.38864 3.31331C4.5542 1.73636 6.1352 0.357134 7.86843 0.0942396C10.0289 -0.233713 12.107 1.10599 12.5921 3.02131C12.6706 3.33098 12.7382 3.64287 12.7228 3.97023L12.7223 3.97023ZM11.4976 4.22352C11.4926 2.42463 10.2203 1.20774 8.65443 1.16211C7.08765 1.11648 5.5482 2.16833 5.54323 3.91391C5.53942 5.29514 6.14987 6.51337 7.25674 7.45854C8.10946 8.18668 8.9294 8.18744 9.73558 7.50663C10.8635 6.55508 11.401 5.34002 11.4976 4.22352Z" fill="#72BFE3"/>
<path id="Vector_5" d="M35.6271 4.19508C35.4823 5.63456 34.8997 6.90251 33.8678 7.98749C32.4957 9.42957 30.591 9.50181 29.1685 8.11231C27.9247 6.8976 27.2163 5.43051 27.2693 3.73423C27.3269 1.88992 28.8693 0.371059 30.8209 0.0789361C32.8822 -0.230004 35.0898 1.04397 35.5513 3.13773C35.6275 3.4831 35.6767 3.83641 35.6271 4.19508ZM31.4726 1.15307C29.9244 1.15105 28.5615 2.23713 28.4865 3.6096C28.4007 5.17636 29.0649 6.48399 30.2929 7.53835C30.7052 7.89229 31.2191 8.08403 31.8039 7.93648C32.3265 7.80482 32.7266 7.49702 33.0724 7.12317C33.7409 6.4006 34.15 5.55925 34.3611 4.63477C34.7791 2.80078 33.4092 1.1557 31.4726 1.15307Z" fill="#72BFE3"/>
<path id="Vector_6" d="M20.0305 3.82953C22.6076 3.90002 24.4406 5.87918 24.128 8.26514C23.9423 9.68042 23.3255 10.9211 22.2442 11.9321C20.864 13.223 19.1363 13.2344 17.7524 11.9488C16.5281 10.8112 15.8639 9.40046 15.7968 7.79811C15.706 5.62699 17.7287 3.76634 20.03 3.82953L20.0305 3.82953Z" fill="#44A2DB"/>
</g>
<defs>
<clipPath id="clip0_92_37">
<rect width="38" height="22" fill="white" transform="translate(0.979431 0.0500641) rotate(-0.0392975)"/>
</clipPath>
</defs>
</svg>
