<svg width="38" height="36" viewBox="0 0 38 36" fill="none" xmlns="http://www.w3.org/2000/svg">
<g id="Capa_1">
<g id="Group" opacity="0.96">
<path id="Vector" d="M6.39718 24.8091C6.39556 22.451 6.39751 20.093 6.38681 17.7349C6.38567 17.4879 6.4437 17.4061 6.70302 17.4066C7.74937 17.4091 8.60945 16.982 9.28365 16.1928C9.4312 16.0201 9.48801 16.032 9.62605 16.192C10.352 17.0331 11.274 17.4395 12.3894 17.4114C13.0356 17.3954 13.6893 17.4677 14.3159 17.2439C14.9388 17.0212 15.4822 16.6755 15.8911 16.1481C16.0163 15.9867 16.0818 15.9636 16.2332 16.1303C17.0273 17.0068 18.0249 17.3998 19.2072 17.4142C20.2221 17.4265 21.1954 17.3431 22.0589 16.7414C22.3178 16.5611 22.5494 16.3525 22.7563 16.118C22.8759 15.9823 22.9457 15.9576 23.0795 16.1201C23.7941 16.9878 24.7165 17.426 25.8472 17.3999C26.4684 17.3856 27.0925 17.4565 27.7058 17.2643C28.3554 17.0607 28.9108 16.723 29.3405 16.1992C29.4883 16.0186 29.5532 16.0092 29.7108 16.1886C30.4036 16.9775 31.274 17.4047 32.3352 17.3916C32.5566 17.3888 32.617 17.4573 32.6168 17.6803C32.6133 22.4084 32.6194 27.1365 32.6191 31.8646C32.6192 32.5329 32.3082 32.8369 31.649 32.8377C27.1978 32.842 22.7467 32.8422 18.2958 32.8546C18.004 32.8555 17.941 32.7728 17.9418 32.4894C17.9506 28.8201 17.9462 25.1504 17.944 21.4811C17.9435 20.781 17.6635 20.5069 16.9554 20.5074C15.0545 20.5087 13.1539 20.5093 11.2531 20.5119C10.5339 20.5127 10.2546 20.7953 10.2548 21.5195C10.2566 25.1648 10.2543 28.8104 10.2694 32.4557C10.271 32.7923 10.1785 32.8709 9.85363 32.8611C9.0364 32.8363 8.2179 32.8541 7.39971 32.854C6.67564 32.8539 6.40348 32.5817 6.40233 31.8472C6.3991 29.5012 6.39846 27.1551 6.39621 24.8091L6.39718 24.8091ZM21.8081 24.3298C21.8087 25.3162 21.8058 26.3029 21.8114 27.2893C21.8147 27.8843 22.1012 28.1801 22.6928 28.1813C24.4129 28.185 26.1334 28.1822 27.8535 28.1739C28.4704 28.1708 28.7409 27.886 28.7415 27.257C28.7434 25.3199 28.7424 23.3832 28.7394 21.4461C28.7383 20.8063 28.4282 20.5002 27.7836 20.4999C26.1115 20.4995 24.4392 20.5013 22.7671 20.5044C22.0998 20.5058 21.8076 20.8027 21.8068 21.4781C21.8055 22.4285 21.8074 23.3791 21.8077 24.3295L21.8081 24.3298Z" fill="#45AE4E"/>
<path id="Vector_2" d="M19.5036 3.54455C19.9605 3.54424 20.4175 3.54879 20.8741 3.54101C21.0481 3.5383 21.125 3.58433 21.1453 3.77809C21.3325 5.56249 21.5268 7.34623 21.7289 9.12899C21.8863 10.5184 22.0583 11.9058 22.2235 13.2943C22.3844 14.6489 21.3074 15.8801 19.9443 15.8791C19.4552 15.8788 18.9629 15.9437 18.4767 15.8143C17.3269 15.5077 16.6079 14.342 16.7859 13.1575C16.9313 12.1891 17.0004 11.2092 17.1091 10.2351C17.2178 9.25996 17.3353 8.28615 17.4459 7.31137C17.5269 6.59725 17.6043 5.88313 17.6807 5.16836C17.7317 4.69217 17.7855 4.2163 17.8241 3.73915C17.8399 3.54569 17.9577 3.54171 18.0973 3.54162C18.5663 3.54227 19.0349 3.54098 19.5039 3.54065L19.5039 3.5439L19.5036 3.54455Z" fill="#45AE4E"/>
<path id="Vector_3" d="M12.6373 15.8884C12.1324 15.9286 11.5475 15.8988 11.063 15.4853C10.3833 14.9051 10.1777 14.1763 10.4163 13.3192C11.2972 10.1553 12.1814 6.99268 13.0549 3.82681C13.1128 3.61677 13.1894 3.53719 13.4143 3.54093C14.2675 3.5543 15.1211 3.55599 15.9743 3.5395C16.2437 3.53445 16.3375 3.60319 16.3036 3.88235C16.1329 5.28302 15.97 6.68498 15.8145 8.08758C15.6826 9.27724 15.5666 10.4685 15.4395 11.6588C15.3466 12.5278 15.2677 13.3987 15.1463 14.2638C15.0135 15.2087 14.202 15.8785 13.2352 15.8883C13.067 15.89 12.8986 15.8885 12.6377 15.8887L12.6373 15.8884Z" fill="#7BC086"/>
<path id="Vector_4" d="M24.2541 3.54064C24.6874 3.54034 25.1207 3.54914 25.5533 3.53553C25.7522 3.52923 25.8564 3.58823 25.9117 3.78878C26.8075 7.0388 27.7191 10.2843 28.6031 13.5375C28.9161 14.6899 27.9949 15.8684 26.8083 15.8738C26.2946 15.8761 25.7737 15.9566 25.2664 15.8177C24.4165 15.5852 23.9091 14.9241 23.8199 14.0514C23.6749 12.6347 23.4895 11.2226 23.3312 9.80723C23.1979 8.61677 23.0825 7.42436 22.9526 6.23325C22.8693 5.47055 22.7795 4.70818 22.679 3.94744C22.6415 3.66249 22.6618 3.49824 23.028 3.53239C23.4337 3.57009 23.8452 3.5406 24.2544 3.54097L24.2541 3.54064Z" fill="#7BC086"/>
<path id="Vector_5" d="M6.2438 15.8934C5.51328 15.9514 4.82184 15.7435 4.34851 15.0677C3.93398 14.4759 3.86799 13.8379 4.17 13.1616C5.34858 10.5226 6.51839 7.88007 7.69047 5.23818C7.80226 4.98591 7.8962 4.72488 8.02001 4.4791C8.31528 3.89368 8.79669 3.57137 9.45388 3.55274C10.0669 3.53577 10.681 3.55255 11.2944 3.54661C11.495 3.54485 11.556 3.56364 11.4877 3.80712C10.5135 7.27783 9.55651 10.7534 8.59304 14.227C8.2531 15.4525 7.64844 15.8905 6.24412 15.8934L6.2438 15.8934Z" fill="#45AE4E"/>
<path id="Vector_6" d="M27.4184 3.5469C28.1973 3.54636 28.9437 3.50333 29.6828 3.55865C30.2787 3.60336 30.7216 3.94613 30.9748 4.51754C32.1018 7.06145 33.2381 9.60113 34.367 12.1441C34.5754 12.6136 34.8376 13.0629 34.9434 13.5731C35.1733 14.6804 34.3926 15.7621 33.2661 15.8606C32.814 15.9002 32.348 15.9388 31.9007 15.8378C31.1119 15.6595 30.6358 15.1305 30.4233 14.3678C29.5878 11.3671 28.7608 8.36432 27.9292 5.36255C27.7639 4.76642 27.5937 4.17126 27.4177 3.5469L27.4184 3.5469Z" fill="#45AE4E"/>
</g>
</g>
</svg>
