<svg width="29" height="26" viewBox="0 0 29 26" fill="none" xmlns="http://www.w3.org/2000/svg">
<g id="1">
<path id="Vector" d="M0.997351 25.3903L0.980208 0.395794C1.07787 0.398403 1.17553 0.402349 1.27386 0.402282C8.65239 0.395883 16.0309 0.388816 23.4095 0.384424C23.481 0.384375 23.5673 0.344182 23.6329 0.428418C23.6089 0.457866 23.5888 0.486642 23.5647 0.511407C21.6838 2.39362 19.8028 4.27516 17.9212 6.15604C16.6879 7.38965 15.452 8.61992 14.2234 9.85822C14.077 10.0055 13.9921 10.0136 13.8488 9.8558C13.5978 9.57905 13.3227 9.32573 13.0576 9.0617C11.735 7.74154 10.4124 6.42072 9.08973 5.10057C8.83873 4.8499 8.83605 4.85191 8.58605 5.08553C8.55998 5.10962 8.53457 5.13506 8.50984 5.15983C6.88756 6.78501 5.26527 8.40952 3.64366 10.0354C3.37562 10.3038 3.37495 10.3065 3.6467 10.5785C7.00149 13.932 10.3569 17.2849 13.7131 20.6378C14.0417 20.966 14.0431 20.9633 14.3826 20.6232C18.172 16.826 21.9613 13.0281 25.752 9.23225C25.8048 9.17937 25.8429 9.09841 25.9418 9.095C26.0008 9.18325 25.9714 9.28227 25.9715 9.37524C25.975 14.5913 25.9773 19.8066 25.9789 25.0226C25.9791 25.3745 26.062 25.3684 25.642 25.3687C21.2273 25.3717 16.8126 25.3747 12.3979 25.3784C8.59729 25.381 4.79665 25.3856 0.996013 25.3896L0.997351 25.3903Z" fill="#C551FF"/>
<path id="Vector_2" d="M14.0239 18.3847C13.9663 18.3312 13.9001 18.2737 13.8385 18.2123C11.5092 15.8861 9.18049 13.56 6.85116 11.2338C6.59279 10.9758 6.33843 10.7144 6.07338 10.4645C5.96093 10.3588 5.93681 10.2933 6.0618 10.1695C6.93946 9.29865 7.8131 8.42381 8.6767 7.53961C8.84715 7.36559 8.92415 7.4759 9.03392 7.58552C10.5808 9.13361 12.1283 10.681 13.6759 12.2285C14.038 12.5908 14.04 12.5921 14.4056 12.226C18.0112 8.6128 21.618 5.00099 25.2155 1.38049C25.3946 1.20043 25.4736 1.23382 25.6269 1.38957C26.4696 2.24517 27.3183 3.09542 28.1758 3.9363C28.3257 4.08335 28.3003 4.15294 28.1666 4.28681C23.517 8.93411 18.8714 13.5854 14.2251 18.2354C14.1697 18.291 14.1276 18.3639 14.0246 18.3847L14.0239 18.3847Z" fill="#620292"/>
</g>
</svg>
