<svg width="37" height="37" viewBox="0 0 37 37" fill="none" xmlns="http://www.w3.org/2000/svg">
<g id="Capa_1" clip-path="url(#clip0_92_13)">
<path id="Vector" d="M33.6595 0.199123C33.8532 0.350997 34.0894 0.257731 34.3038 0.308886C35.6969 0.639496 36.5562 1.5348 36.8788 2.88839C37.2109 4.28758 36.686 5.42704 35.5357 6.25152C32.5949 8.35978 29.6445 10.4528 26.6885 12.5393C25.4594 13.4066 24.1244 13.4084 22.9018 12.5761C22.749 12.4717 22.6588 12.4736 22.5109 12.5839C21.9371 13.009 21.3558 13.4255 20.764 13.8259C20.5743 13.9543 20.5137 14.094 20.5148 14.3172C20.5239 16.5109 20.5178 18.7045 20.526 20.8972C20.5272 21.2877 20.4069 21.5965 20.1091 21.8533C19.7279 22.1832 19.3676 22.5359 18.994 22.8734C18.8271 23.0236 18.7874 23.1101 19.036 23.2411C21.1688 24.3616 23.293 25.4964 25.4201 26.6274C26.15 27.0155 26.879 27.4064 27.6677 27.8267C18.8437 30.6297 10.0862 33.4117 1.24134 36.2214C1.74458 35.3764 2.20328 34.6094 2.65913 33.8405C2.70747 33.7598 2.76911 33.7189 2.86116 33.7444C3.85856 34.0221 4.68465 33.5427 5.52123 33.1308C6.37013 32.7131 7.15063 32.1682 8.02708 31.7943C8.74892 31.485 9.51267 31.4218 10.2659 31.2873C11.9518 30.9869 13.5939 30.5117 15.2378 30.0488C17.0421 29.5412 18.8483 29.0393 20.6222 28.431C21.0766 28.2758 21.5205 28.096 21.9359 27.8553C22.6198 27.4587 22.7322 26.8202 22.2261 26.2135C21.8159 25.7216 21.2796 25.38 20.7698 25.0089C20.2401 24.6235 19.6848 24.2743 19.2252 23.7967C18.9423 23.5033 18.7437 23.1672 18.6467 22.7758C18.562 22.4339 18.4072 22.1404 18.1214 21.9306C18.0085 21.8481 17.9856 21.7787 18.1051 21.6893C18.1241 21.6751 18.1383 21.6551 18.1582 21.6427C18.9388 21.1719 19.1043 20.4792 19.0724 19.5948C19.0028 17.6738 19.0575 15.7481 19.041 13.8242C19.0378 13.4167 19.1781 13.1401 19.51 12.9138C20.2052 12.4373 20.8813 11.9333 21.5755 11.455C21.7481 11.3361 21.7927 11.2401 21.7157 11.0331C21.1529 9.51623 21.5638 8.14029 22.9019 7.17982C25.4036 5.38442 27.9206 3.60992 30.4309 1.82781C30.9174 1.48261 31.4067 1.13931 31.8942 0.796011C32.4035 0.437495 32.9983 0.324032 33.5893 0.201071L33.6595 0.201023L33.6595 0.199123Z" fill="#23388E"/>
<path id="Vector_2" d="M0.995664 30.7673C1.16341 30.4879 1.13188 30.1611 1.1905 29.859C1.42875 28.6209 2.13024 27.6913 3.06998 26.9097C3.95851 26.1699 4.98098 25.6524 6.01295 25.152C6.44357 24.9427 6.86944 24.7248 7.26871 24.4547C7.98852 23.9669 8.43404 23.3367 8.58049 22.4445C8.88285 20.5984 10.5321 19.5607 12.3428 20.0127C12.8922 20.15 13.4209 20.3644 13.8415 20.7384C14.6067 21.4181 15.46 21.9239 16.4356 22.2215C16.9177 22.3685 17.1826 22.6714 17.3082 23.1681C17.5156 23.9898 18.146 24.4986 18.7868 24.9798C19.3858 25.4297 20.0085 25.8473 20.5942 26.3134C21.3081 26.882 21.276 27.0891 20.4517 27.4421C18.9379 28.0902 17.3451 28.4969 15.7703 28.9569C13.8399 29.5206 11.9132 30.0986 9.94093 30.5037C9.26926 30.642 8.57951 30.7023 7.9145 30.8652C7.0332 31.0805 6.25739 31.5475 5.47777 32.0003C4.8224 32.3807 4.20124 32.841 3.4575 33.0362C2.86934 33.1906 2.28103 33.1311 1.71632 32.8807C1.36135 32.7242 1.19698 32.4013 0.996583 32.1069L0.995665 30.7692L0.995664 30.7673Z" fill="#8C90C7"/>
</g>
<defs>
<clipPath id="clip0_92_13">
<rect width="36" height="36" fill="white" transform="translate(0.974701 0.221542) rotate(-0.0392975)"/>
</clipPath>
</defs>
</svg>
